<svg width="1440" height="1204" viewBox="0 0 1440 1204" fill="none" xmlns="http://www.w3.org/2000/svg">
<path d="M179 314.5C109 314.5 -33.5 404.493 -103.5 437.5L-270 533H1761C1576.5 359.5 1455 213 1357 213C1259 213 1056.88 424.007 998 424.007C939.118 424.007 771.288 271.5 709 271.5C646.712 271.5 446.805 424.007 421.5 424.007C396.195 424.007 212 314.5 179 314.5Z" fill="url(#paint0_linear_1921_1130)"/>
<g filter="url(#filter0_f_1921_1130)">
<circle cx="1440" cy="48" r="334" fill="#CE3B3A" fill-opacity="0.2"/>
</g>
<path d="M1296.1 318.126C1415.33 379.85 1507.1 355.05 1556 360.01V554H512C640.027 491.174 920.479 300.674 1018.07 256.144C1140.05 200.482 1196.48 266.557 1296.1 318.126Z" fill="url(#paint1_linear_1921_1130)"/>
<g filter="url(#filter1_f_1921_1130)">
<ellipse cx="240.5" cy="369" rx="683.5" ry="300" fill="#F8F8F8"/>
</g>
<path d="M1416.88 504.449C1512.36 553.789 1585.84 533.965 1625 537.93V693H789C891.52 642.778 1116.1 490.498 1194.24 454.902C1291.92 410.407 1337.11 463.226 1416.88 504.449Z" fill="url(#paint2_linear_1921_1130)"/>
<g clip-path="url(#clip0_1921_1130)">
<path d="M180.228 258C155.29 258 135 237.817 135 213.003C135 188.19 155.29 168 180.228 168C205.165 168 225.455 188.19 225.455 213.003C225.455 237.817 205.165 258.007 180.228 258.007V258ZM180.228 182.16C163.138 182.16 149.237 195.992 149.237 212.997C149.237 230.001 163.138 243.834 180.228 243.834C197.317 243.834 211.218 230.001 211.218 212.997C211.218 195.992 197.317 182.16 180.228 182.16V182.16Z" fill="white"/>
<path d="M180.227 170.152C156.486 170.152 137.169 189.373 137.169 213.003C137.169 236.633 156.486 255.848 180.227 255.848C203.968 255.848 223.293 236.627 223.293 213.003C223.293 189.38 203.968 170.152 180.227 170.152ZM180.227 245.992C161.948 245.992 147.074 231.192 147.074 213.003C147.074 194.815 161.948 180.008 180.227 180.008C198.506 180.008 213.387 194.808 213.387 213.003C213.387 231.198 198.506 245.992 180.227 245.992Z" fill="#BFBFBF"/>
<path d="M223.286 213.003H213.381C213.381 194.808 198.5 180.008 180.221 180.008V170.152C203.969 170.152 223.286 189.373 223.286 213.003Z" fill="#41A5CC"/>
<path d="M223.286 213.003C223.286 236.627 203.969 255.848 180.221 255.848C156.473 255.848 137.169 236.627 137.169 213.003H147.074C147.074 231.192 161.948 245.992 180.227 245.992C198.506 245.992 213.387 231.192 213.387 213.003H223.293H223.286Z" fill="#CE3B3A"/>
<path d="M244.694 168H234.302V178.34H244.694V168Z" fill="#CE3B3A"/>
<path d="M244.694 184.985H234.302V195.325H244.694V184.985Z" fill="#41A5CC"/>
<path d="M244.694 201.976H234.302V212.317H244.694V201.976Z" fill="#BFBFBF"/>
<path d="M253.58 174.154C253.58 174.828 253.1 175.364 252.101 175.364C251.549 175.364 251.004 175.188 250.668 174.893L250.925 174.455C251.188 174.697 251.622 174.874 252.095 174.874C252.686 174.874 253.022 174.599 253.022 174.181C253.022 173.762 252.745 173.468 251.838 173.468H250.951L251.155 171.434H253.363V171.918H251.628L251.523 172.984H251.957C253.127 172.984 253.58 173.468 253.58 174.154Z" fill="white"/>
<path d="M254.041 173.376C254.041 172.107 254.724 171.388 255.638 171.388C256.551 171.388 257.228 172.107 257.228 173.376C257.228 174.645 256.545 175.364 255.638 175.364C254.731 175.364 254.041 174.645 254.041 173.376V173.376ZM256.67 173.376C256.67 172.382 256.242 171.878 255.638 171.878C255.033 171.878 254.599 172.382 254.599 173.376C254.599 174.37 255.026 174.874 255.638 174.874C256.249 174.874 256.67 174.37 256.67 173.376V173.376Z" fill="white"/>
<path d="M257.708 172.46C257.708 171.826 258.076 171.401 258.622 171.401C259.167 171.401 259.529 171.826 259.529 172.46C259.529 173.095 259.167 173.52 258.622 173.52C258.076 173.52 257.708 173.095 257.708 172.46V172.46ZM259.167 172.46C259.167 171.996 258.963 171.715 258.622 171.715C258.28 171.715 258.076 171.996 258.076 172.46C258.076 172.925 258.286 173.206 258.622 173.206C258.957 173.206 259.167 172.931 259.167 172.46ZM260.975 171.434H261.402L258.733 175.325H258.306L260.975 171.434V171.434ZM260.186 174.298C260.186 173.664 260.547 173.239 261.093 173.239C261.639 173.239 262.007 173.664 262.007 174.298C262.007 174.933 261.639 175.358 261.093 175.358C260.547 175.358 260.186 174.933 260.186 174.298ZM261.639 174.298C261.639 173.834 261.428 173.553 261.093 173.553C260.758 173.553 260.547 173.827 260.547 174.298C260.547 174.769 260.751 175.044 261.093 175.044C261.435 175.044 261.639 174.763 261.639 174.298Z" fill="white"/>
<path d="M253.869 191.826V192.31H251.063V191.931L252.653 190.4C253.067 190.001 253.146 189.753 253.146 189.511C253.146 189.112 252.864 188.863 252.311 188.863C251.891 188.863 251.549 188.994 251.312 189.288L250.931 188.961C251.234 188.589 251.753 188.373 252.364 188.373C253.179 188.373 253.705 188.791 253.705 189.458C253.705 189.838 253.593 190.178 253.061 190.681L251.864 191.826H253.869V191.826Z" fill="white"/>
<path d="M257.07 191.146C257.07 191.819 256.59 192.356 255.591 192.356C255.039 192.356 254.493 192.179 254.158 191.885L254.415 191.447C254.677 191.689 255.111 191.865 255.585 191.865C256.176 191.865 256.511 191.591 256.511 191.172C256.511 190.753 256.235 190.459 255.328 190.459H254.441L254.645 188.425H256.853V188.909H255.118L255.013 189.975H255.446C256.616 189.975 257.07 190.459 257.07 191.146V191.146Z" fill="white"/>
<path d="M257.418 189.445C257.418 188.811 257.787 188.386 258.332 188.386C258.878 188.386 259.239 188.811 259.239 189.445C259.239 190.08 258.878 190.505 258.332 190.505C257.787 190.505 257.418 190.08 257.418 189.445ZM258.878 189.445C258.878 188.981 258.674 188.7 258.332 188.7C257.99 188.7 257.787 188.981 257.787 189.445C257.787 189.91 257.997 190.191 258.332 190.191C258.667 190.191 258.878 189.916 258.878 189.445ZM260.685 188.419H261.112L258.444 192.31H258.017L260.685 188.419V188.419ZM259.896 191.283C259.896 190.649 260.258 190.224 260.803 190.224C261.349 190.224 261.717 190.649 261.717 191.283C261.717 191.918 261.349 192.343 260.803 192.343C260.258 192.343 259.896 191.918 259.896 191.283ZM261.349 191.283C261.349 190.819 261.139 190.538 260.803 190.538C260.468 190.538 260.258 190.812 260.258 191.283C260.258 191.754 260.462 192.029 260.803 192.029C261.145 192.029 261.349 191.748 261.349 191.283Z" fill="white"/>
<path d="M253.869 208.818V209.302H251.063V208.922L252.653 207.392C253.067 206.993 253.146 206.744 253.146 206.502C253.146 206.103 252.864 205.855 252.311 205.855C251.891 205.855 251.549 205.986 251.312 206.28L250.931 205.953C251.234 205.58 251.753 205.364 252.364 205.364C253.179 205.364 253.705 205.783 253.705 206.45C253.705 206.829 253.593 207.169 253.061 207.673L251.864 208.818H253.869V208.818Z" fill="white"/>
<path d="M257.07 208.131C257.07 208.804 256.59 209.341 255.591 209.341C255.039 209.341 254.493 209.164 254.158 208.87L254.415 208.432C254.677 208.674 255.111 208.85 255.585 208.85C256.176 208.85 256.511 208.576 256.511 208.157C256.511 207.738 256.235 207.444 255.328 207.444H254.441L254.645 205.41H256.853V205.894H255.118L255.013 206.96H255.446C256.616 206.96 257.07 207.444 257.07 208.131Z" fill="white"/>
<path d="M257.418 206.437C257.418 205.802 257.787 205.377 258.332 205.377C258.878 205.377 259.239 205.802 259.239 206.437C259.239 207.071 258.878 207.496 258.332 207.496C257.787 207.496 257.418 207.071 257.418 206.437ZM258.878 206.437C258.878 205.973 258.674 205.691 258.332 205.691C257.99 205.691 257.787 205.973 257.787 206.437C257.787 206.901 257.997 207.182 258.332 207.182C258.667 207.182 258.878 206.908 258.878 206.437ZM260.685 205.41H261.112L258.444 209.302H258.017L260.685 205.41ZM259.896 208.275C259.896 207.64 260.258 207.215 260.803 207.215C261.349 207.215 261.717 207.64 261.717 208.275C261.717 208.909 261.349 209.334 260.803 209.334C260.258 209.334 259.896 208.909 259.896 208.275ZM261.349 208.275C261.349 207.81 261.139 207.529 260.803 207.529C260.468 207.529 260.258 207.804 260.258 208.275C260.258 208.746 260.462 209.02 260.803 209.02C261.145 209.02 261.349 208.739 261.349 208.275Z" fill="white"/>
</g>
<path d="M8.11948 621.687C-60.2926 657.096 -112.942 642.869 -141 645.714V757H458C384.544 720.959 223.633 611.675 167.643 586.13C97.6542 554.198 65.2761 592.103 8.11948 621.687Z" fill="url(#paint3_linear_1921_1130)"/>
<g clip-path="url(#clip1_1921_1130)">
<path d="M524 536.497H708" stroke="#E8E8E8" stroke-width="0.87" stroke-miterlimit="10"/>
<path d="M524 554.538H708" stroke="#E8E8E8" stroke-width="0.87" stroke-miterlimit="10"/>
<path d="M524 572.591H708" stroke="#E8E8E8" stroke-width="0.87" stroke-miterlimit="10"/>
<path d="M524 590.644H708" stroke="#E8E8E8" stroke-width="0.87" stroke-miterlimit="10"/>
<path d="M524 608.696H708" stroke="#E8E8E8" stroke-width="0.87" stroke-miterlimit="10"/>
<path d="M524 626.749H708" stroke="#E8E8E8" stroke-width="0.87" stroke-miterlimit="10"/>
<path d="M535.858 608.696C535.858 610.617 534.311 612.176 532.406 612.176C530.501 612.176 528.954 610.617 528.954 608.696C528.954 606.776 530.501 605.217 532.406 605.217C534.311 605.217 535.858 606.776 535.858 608.696Z" fill="#1AB1EC"/>
<path d="M552.378 590.35C552.378 592.27 550.831 593.829 548.926 593.829C547.021 593.829 545.474 592.27 545.474 590.35C545.474 588.43 547.021 586.871 548.926 586.871C550.831 586.871 552.378 588.43 552.378 590.35Z" fill="#005E8E"/>
<path d="M586.294 554.538C586.294 556.459 584.747 558.018 582.842 558.018C580.936 558.018 579.39 556.459 579.39 554.538C579.39 552.618 580.936 551.059 582.842 551.059C584.747 551.059 586.294 552.618 586.294 554.538Z" fill="#CE3B3A"/>
<path d="M620.354 572.591C620.354 574.512 618.808 576.071 616.902 576.071C614.997 576.071 613.45 574.512 613.45 572.591C613.45 570.671 614.997 569.112 616.902 569.112C618.808 569.112 620.354 570.671 620.354 572.591Z" fill="#005E8E"/>
<path d="M653.698 590.35C653.698 592.27 652.151 593.829 650.245 593.829C648.34 593.829 646.793 592.27 646.793 590.35C646.793 588.43 648.34 586.871 650.245 586.871C652.151 586.871 653.698 588.43 653.698 590.35Z" fill="#005E8E"/>
<path d="M687.164 590.644C687.164 592.564 685.618 594.123 683.712 594.123C681.807 594.123 680.26 592.564 680.26 590.644C680.26 588.723 681.807 587.164 683.712 587.164C685.618 587.164 687.164 588.723 687.164 590.644Z" fill="#005E8E"/>
<path d="M569.482 572.591C569.482 574.512 567.935 576.071 566.03 576.071C564.124 576.071 562.578 574.512 562.578 572.591C562.578 570.671 564.124 569.112 566.03 569.112C567.935 569.112 569.482 570.671 569.482 572.591Z" fill="#005E8E"/>
<path d="M603.105 572.591C603.105 574.512 601.559 576.071 599.653 576.071C597.748 576.071 596.201 574.512 596.201 572.591C596.201 570.671 597.748 569.112 599.653 569.112C601.559 569.112 603.105 570.671 603.105 572.591Z" fill="#005E8E"/>
<path d="M637.615 572.591C637.615 574.512 636.068 576.071 634.162 576.071C632.257 576.071 630.71 574.512 630.71 572.591C630.71 570.671 632.257 569.112 634.162 569.112C636.068 569.112 637.615 570.671 637.615 572.591Z" fill="#005E8E"/>
<path d="M670.353 590.644C670.353 592.564 668.806 594.123 666.901 594.123C664.995 594.123 663.449 592.564 663.449 590.644C663.449 588.723 664.995 587.164 666.901 587.164C668.806 587.164 670.353 588.723 670.353 590.644Z" fill="#005E8E"/>
<path d="M703.976 608.696C703.976 610.617 702.43 612.176 700.524 612.176C698.619 612.176 697.072 610.617 697.072 608.696C697.072 606.776 698.619 605.217 700.524 605.217C702.43 605.217 703.976 606.776 703.976 608.696Z" fill="#1AB1EC"/>
<path d="M532.966 637.018V641.944H532.271V637.628H531.173V637.018H532.966Z" fill="white"/>
<path d="M567.789 641.333V641.944H564.281V641.469L566.265 639.537C566.78 639.029 566.881 638.724 566.881 638.408C566.881 637.899 566.523 637.594 565.839 637.594C565.312 637.594 564.886 637.764 564.595 638.125L564.124 637.707C564.505 637.233 565.155 636.962 565.906 636.962C566.926 636.962 567.576 637.493 567.576 638.328C567.576 638.803 567.442 639.232 566.769 639.876L565.278 641.322H567.789V641.333Z" fill="white"/>
<path d="M601.334 640.497C601.334 641.322 600.729 642 599.485 642C598.79 642 598.107 641.774 597.692 641.401L598.017 640.848C598.342 641.153 598.891 641.379 599.485 641.379C600.214 641.379 600.64 641.04 600.64 640.509C600.64 639.978 600.27 639.65 599.429 639.65H599.037V639.153L600.27 637.639H597.916V637.029H601.144V637.504L599.866 639.097C600.841 639.187 601.334 639.741 601.334 640.509V640.497Z" fill="white"/>
<path d="M636.404 640.735H635.474V641.944H634.801V640.735H632.089V640.238L634.588 637.018H635.339L632.941 640.125H634.824V639.051H635.474V640.125H636.404V640.735Z" fill="white"/>
<path d="M668.66 640.464C668.66 641.311 668.055 642 666.811 642C666.116 642 665.432 641.774 665.018 641.401L665.343 640.848C665.668 641.153 666.217 641.379 666.811 641.379C667.551 641.379 667.965 641.028 667.965 640.497C667.965 639.967 667.618 639.594 666.486 639.594H665.376L665.634 637.018H668.391V637.628H666.217L666.082 638.984H666.632C668.089 638.984 668.66 639.594 668.66 640.464Z" fill="white"/>
<path d="M702.486 640.441C702.486 641.39 701.723 642 700.76 642C699.448 642 698.708 641.119 698.708 639.549C698.708 637.865 699.65 636.973 701.017 636.973C701.477 636.973 701.914 637.063 702.228 637.255L701.959 637.809C701.712 637.639 701.376 637.572 701.029 637.572C700.042 637.572 699.403 638.193 699.403 639.424C699.403 639.481 699.403 639.537 699.403 639.605C699.684 639.187 700.199 638.961 700.804 638.961C701.779 638.961 702.474 639.549 702.474 640.452L702.486 640.441ZM701.813 640.475C701.813 639.899 701.376 639.526 700.692 639.526C700.009 639.526 699.571 639.944 699.571 640.486C699.571 640.995 699.975 641.435 700.726 641.435C701.365 641.435 701.802 641.062 701.802 640.475H701.813Z" fill="white"/>
</g>
<defs>
<filter id="filter0_f_1921_1130" x="571" y="-821" width="1738" height="1738" filterUnits="userSpaceOnUse" color-interpolation-filters="sRGB">
<feFlood flood-opacity="0" result="BackgroundImageFix"/>
<feBlend mode="normal" in="SourceGraphic" in2="BackgroundImageFix" result="shape"/>
<feGaussianBlur stdDeviation="267.5" result="effect1_foregroundBlur_1921_1130"/>
</filter>
<filter id="filter1_f_1921_1130" x="-978" y="-466" width="2437" height="1670" filterUnits="userSpaceOnUse" color-interpolation-filters="sRGB">
<feFlood flood-opacity="0" result="BackgroundImageFix"/>
<feBlend mode="normal" in="SourceGraphic" in2="BackgroundImageFix" result="shape"/>
<feGaussianBlur stdDeviation="267.5" result="effect1_foregroundBlur_1921_1130"/>
</filter>
<linearGradient id="paint0_linear_1921_1130" x1="701.791" y1="225.75" x2="701.791" y2="533" gradientUnits="userSpaceOnUse">
<stop stop-color="#CE3B3A" stop-opacity="0.17"/>
<stop offset="1" stop-color="#CE3B3A" stop-opacity="0"/>
</linearGradient>
<linearGradient id="paint1_linear_1921_1130" x1="1034" y1="237.113" x2="1034" y2="500.285" gradientUnits="userSpaceOnUse">
<stop stop-color="#CE3B3A" stop-opacity="0.19"/>
<stop offset="1" stop-color="#CE3B3A" stop-opacity="0"/>
</linearGradient>
<linearGradient id="paint2_linear_1921_1130" x1="1207" y1="439.689" x2="1207" y2="650.061" gradientUnits="userSpaceOnUse">
<stop stop-color="#CE3B3A" stop-opacity="0.19"/>
<stop offset="1" stop-color="#CE3B3A" stop-opacity="0"/>
</linearGradient>
<linearGradient id="paint3_linear_1921_1130" x1="158.5" y1="575.212" x2="158.5" y2="726.185" gradientUnits="userSpaceOnUse">
<stop stop-color="#CE3B3A" stop-opacity="0.19"/>
<stop offset="1" stop-color="#CE3B3A" stop-opacity="0"/>
</linearGradient>
<clipPath id="clip0_1921_1130">
<rect width="127" height="90" fill="white" transform="translate(135 168)"/>
</clipPath>
<clipPath id="clip1_1921_1130">
<rect width="184" height="106" fill="white" transform="translate(524 536)"/>
</clipPath>
</defs>
</svg>
