<svg width="17" height="17" viewBox="0 0 17 17" fill="none" xmlns="http://www.w3.org/2000/svg">
<g clip-path="url(#clip0_1866_3874)">
<path d="M5.59969 8.2823C6.38848 9.57482 7.42209 10.6122 8.72089 11.4048C9.05408 11.1394 9.38729 10.8707 9.72049 10.6054C10.0605 10.3333 10.3971 10.0612 10.7371 9.79251C11.5531 9.14285 12.6037 9.15645 13.4061 9.82652C14.1473 10.4422 14.8749 11.0714 15.6297 11.6735C16.6905 12.5204 16.6973 14.2755 15.7963 15.1394C15.5515 15.3741 15.3135 15.6156 15.0789 15.8571C14.1609 16.8061 13.0355 17.153 11.7503 16.9456C10.3087 16.7143 8.91469 16.3061 7.59889 15.6531C6.26269 14.9932 5.10669 14.0884 4.05269 13.0476C2.62469 11.6326 1.48909 10.0272 0.802285 8.11904C0.452085 7.15305 0.183485 6.16666 0.0440852 5.15305C-0.119115 3.98298 0.176685 2.93536 1.00629 2.06802C1.29869 1.7619 1.60129 1.46938 1.90049 1.17006C2.76409 0.309515 4.46749 0.312916 5.30049 1.33673C5.92949 2.10543 6.57209 2.86053 7.20449 3.62584C7.83349 4.39115 7.84709 5.44217 7.23169 6.22448C6.73189 6.86053 6.22189 7.48979 5.71869 8.11904C5.67789 8.17006 5.64048 8.22108 5.59628 8.2789L5.59969 8.2823ZM12.1141 15.9014C13.1069 15.9082 13.7019 15.6701 14.2221 15.1565C14.4771 14.9048 14.7117 14.636 14.9803 14.4048C15.4835 13.9694 15.4801 12.9388 14.9021 12.4864C14.1439 11.8945 13.4197 11.2585 12.6785 10.6428C12.3045 10.3333 11.8183 10.3299 11.4341 10.636C10.6827 11.2347 9.92789 11.8367 9.17988 12.4422C8.94188 12.6326 8.70728 12.6599 8.44209 12.5102C6.76249 11.5578 5.45009 10.2449 4.49469 8.56462C4.33829 8.29251 4.36889 8.05441 4.56609 7.80951C5.17129 7.06121 5.77309 6.30951 6.37149 5.55441C6.66389 5.18707 6.66728 4.69387 6.37149 4.34013C5.74249 3.57822 5.09649 2.83332 4.48109 2.06121C4.04929 1.5204 3.05309 1.534 2.64169 1.97618C2.36289 2.2755 2.06029 2.55441 1.77469 2.85033C1.40069 3.24149 1.18989 3.70747 1.11849 4.24489C1.05049 4.7687 1.16609 5.2721 1.27149 5.7789C1.66249 7.62924 2.36629 9.34013 3.54609 10.8333C5.37529 13.1531 7.62608 14.8503 10.5365 15.5646C11.1417 15.7109 11.7537 15.8265 12.1107 15.9014H12.1141Z" fill="white"/>
</g>
<defs>
<clipPath id="clip0_1866_3874">
<rect width="17" height="17" fill="white"/>
</clipPath>
</defs>
</svg>
