<svg width="80" height="80" viewBox="0 0 80 80" fill="none" xmlns="http://www.w3.org/2000/svg">
<g clip-path="url(#clip0_1921_1230)">
<path d="M38.7 60.63H0V9.07001H61.86C62.02 5.96001 63.23 3.46001 65.72 1.67001C67.49 0.400006 69.48 -0.139994 71.65 0.0300057C76.02 0.360006 79.57 3.92001 79.93 8.31001C80.24 12.09 78.01 16.83 72.21 18.01C72.21 18.28 72.21 18.57 72.21 18.86C72.21 26.74 72.21 34.61 72.21 42.49C72.21 43 72.33 43.36 72.74 43.73C79.03 49.48 81.44 56.56 79.16 64.79C76.86 73.1 71.17 78.15 62.68 79.69C51 81.8 39.85 73.16 38.81 61.39C38.79 61.18 38.75 60.97 38.7 60.64V60.63ZM2.6 11.61V58.02H38.72C38.82 57.17 38.91 56.36 39.01 55.47H36.14V40.04H43.85V45.56C51.52 38.15 60.05 36.73 69.59 41.37V18.15C68.16 17.55 66.81 16.99 65.37 16.39C63.04 18.72 60.62 21.16 58.18 23.58C57.79 23.96 57.69 24.27 57.85 24.83C58.32 26.44 57.81 27.82 56.51 28.84C55.23 29.85 53.81 29.96 52.35 29.22C50.97 28.52 49.94 26.96 50.35 25.51C50.75 24.13 50.08 23.5 49.28 22.76C49 22.51 48.78 22.18 48.47 21.98C48.22 21.82 47.89 21.76 47.58 21.75C46.81 21.72 46.03 21.86 45.29 21.72C44.81 21.63 44.56 21.72 44.26 22.03C42.67 23.64 41.09 25.24 39.47 26.82C38.77 27.5 38.01 28.12 38.64 29.24C38.68 29.3 38.66 29.4 38.66 29.48C38.75 31.14 37.75 32.67 36.2 33.28C34.61 33.9 32.85 33.43 31.77 32.09C30.73 30.79 30.64 28.97 31.56 27.57C32.48 26.17 34.17 25.49 35.77 25.98C36.32 26.15 36.64 26.04 37.02 25.65C38.6 24.03 40.19 22.43 41.81 20.86C42.48 20.21 43.17 19.62 42.57 18.57C42.52 18.49 42.54 18.36 42.54 18.25C42.52 16.62 43.21 15.38 44.65 14.64C46.1 13.89 47.54 14.04 48.8 15.07C50.08 16.11 50.57 17.49 50.09 19.1C49.93 19.63 50.03 19.93 50.41 20.27C50.99 20.79 51.49 21.4 52.08 21.9C52.29 22.08 52.66 22.11 52.96 22.12C53.7 22.14 54.46 22 55.17 22.14C55.71 22.25 55.99 22.14 56.34 21.78C58.61 19.49 60.9 17.21 63.18 14.93C63.34 14.77 63.49 14.58 63.61 14.45C63.24 13.75 62.78 13.14 62.59 12.46C62.37 11.67 61.93 11.6 61.25 11.6C42.03 11.61 22.81 11.61 3.59 11.61H2.57H2.6ZM44.35 69.49C48.04 74.53 52.88 77.31 59.07 77.39C65.46 77.47 70.47 74.69 74.27 69.53C74.05 69.38 73.93 69.29 73.8 69.21C72.48 68.45 71.16 67.68 69.84 66.93C64.57 74 54.22 74.06 48.82 66.93C47.37 67.77 45.92 68.61 44.36 69.5L44.35 69.49ZM47.54 64.66C45.87 60.6 45.98 56.67 48.15 52.91C50.33 49.13 53.72 47.08 57.98 46.48V41.32C51.47 42.06 46.51 45.12 43.41 50.85C40.53 56.18 40.55 61.66 43.07 67.23C44.59 66.35 46.03 65.52 47.54 64.65V64.66ZM75.56 67.24C78.11 61.58 78.1 56.02 75.1 50.64C71.98 45.04 67.07 42.03 60.65 41.34V46.5C64.96 47.1 68.3 49.18 70.48 52.93C72.67 56.71 72.75 60.66 71.1 64.67C72.61 65.54 74.05 66.37 75.57 67.24H75.56ZM59.3 49.03C53.63 49.03 48.99 53.67 48.99 59.34C48.99 65.01 53.62 69.66 59.28 69.67C64.99 69.68 69.64 65.03 69.63 59.32C69.63 53.66 64.97 49.02 59.3 49.03ZM77.37 9.09001C77.4 5.52001 74.52 2.60001 70.96 2.58001C67.43 2.56001 64.51 5.42001 64.47 8.93001C64.43 12.5 67.29 15.45 70.83 15.48C74.39 15.52 77.34 12.64 77.36 9.09001H77.37ZM38.7 53.04C39.14 52.85 39.68 52.8 39.79 52.56C40.67 50.65 41.62 48.75 41.26 46.52C41.15 45.84 41.24 45.13 41.24 44.43V42.64H38.69V53.04H38.7ZM47.69 18.02C47.67 17.32 47.07 16.75 46.37 16.77C45.67 16.79 45.1 17.39 45.12 18.09C45.14 18.79 45.74 19.36 46.43 19.34C47.13 19.32 47.7 18.72 47.68 18.02H47.69ZM54.11 27.08C54.81 27.1 55.41 26.53 55.43 25.83C55.45 25.13 54.88 24.53 54.18 24.51C53.48 24.49 52.88 25.06 52.86 25.76C52.84 26.46 53.41 27.06 54.1 27.08H54.11ZM36.08 29.67C36.08 28.97 35.5 28.38 34.8 28.38C34.1 28.38 33.51 28.96 33.51 29.66C33.51 30.36 34.09 30.95 34.79 30.95C35.49 30.95 36.08 30.37 36.08 29.67Z" fill="#CE3B3A"/>
<path d="M25.8198 34.88H33.4598V55.42H25.8198V34.88ZM28.3898 37.44V52.85H30.8598V37.44H28.3898Z" fill="#CE3B3A"/>
<path d="M5.1499 55.43V42.63H12.7899V55.43H5.1499ZM10.2199 52.87V45.23H7.7399V52.87H10.2199Z" fill="#CE3B3A"/>
<path d="M15.5 45.2H23.14V55.42H15.5V45.2ZM18.05 52.86H20.56V47.79H18.03C18.03 49.34 18.03 50.84 18.03 52.34C18.03 52.5 18.04 52.65 18.05 52.85V52.86Z" fill="#CE3B3A"/>
<path d="M10.3198 16.72V14.24H28.3098V16.72H10.3198Z" fill="#CE3B3A"/>
<path d="M28.3098 19.41V21.89H10.3198V19.41H28.3098Z" fill="#CE3B3A"/>
<path d="M10.3301 24.56H28.3001V27.04H10.3301V24.56Z" fill="#CE3B3A"/>
<path d="M10.3198 32.2V29.72H28.2798V32.2H10.3198Z" fill="#CE3B3A"/>
<path d="M7.64016 16.74H5.16016V14.26H7.64016V16.74Z" fill="#CE3B3A"/>
<path d="M5.18994 19.37H7.63994V21.88H5.18994V19.37Z" fill="#CE3B3A"/>
<path d="M5.16016 24.55H7.65016V27.05H5.16016V24.55Z" fill="#CE3B3A"/>
<path d="M7.65992 29.72V32.2H5.16992V29.72H7.65992Z" fill="#CE3B3A"/>
<path d="M67.0498 59.35C67.0498 63.61 63.5798 67.1 59.3198 67.1C55.0698 67.1 51.5698 63.62 51.5698 59.37C51.5698 55.11 55.0398 51.63 59.2998 51.62C63.5598 51.62 67.0398 55.09 67.0498 59.35ZM64.4698 59.37C64.4698 56.52 62.1498 54.2 59.2998 54.2C56.4898 54.2 54.1698 56.5 54.1498 59.31C54.1298 62.16 56.4398 64.51 59.2798 64.52C62.1298 64.53 64.4698 62.21 64.4698 59.37Z" fill="#CE3B3A"/>
</g>
<defs>
<clipPath id="clip0_1921_1230">
<rect width="80" height="80" fill="white"/>
</clipPath>
</defs>
</svg>
