<svg width="20" height="19" viewBox="0 0 20 19" fill="none" xmlns="http://www.w3.org/2000/svg">
<path d="M17.6458 16.6331C17.6458 17.0175 17.3296 17.325 16.9343 17.325H12.8238V11.6357H15.0372L15.4061 9.45733H12.8238V7.94529C12.8238 7.35586 13.2981 6.89456 13.9041 6.89456H15.3797V4.71621H13.9041C12.086 4.71621 10.6105 6.15136 10.6105 7.94529V9.4317H8.44982V11.6101H10.6105V17.2994H2.83741C2.44217 17.2994 2.12597 16.9919 2.12597 16.6074V2.92227C2.12597 2.53785 2.44217 2.23032 2.83741 2.23032H16.9343C17.3296 2.23032 17.6458 2.53785 17.6458 2.92227V16.6331ZM16.9343 0.820801H2.83741C1.65168 0.820801 0.676758 1.76902 0.676758 2.92227V16.6331C0.676758 17.7863 1.65168 18.7345 2.83741 18.7345H16.9343C18.12 18.7345 19.095 17.7863 19.095 16.6331V2.92227C19.095 1.76902 18.12 0.820801 16.9343 0.820801Z" fill="white"/>
</svg>
