<svg width="19" height="19" viewBox="0 0 19 19" fill="none" xmlns="http://www.w3.org/2000/svg">
<path d="M18.2546 6.05773C18.202 5.11252 18.0445 4.44833 17.8343 3.88632C17.5979 3.29876 17.2565 2.7623 16.7837 2.30247C16.3372 1.84264 15.7593 1.51054 15.1552 1.28063C14.5774 1.07626 13.9208 0.922985 12.9227 0.871893C11.9508 0.820801 11.6357 0.820801 9.16669 0.820801C6.67146 0.820801 6.38253 0.820801 5.38444 0.871893C4.41262 0.922985 3.72971 1.07626 3.15187 1.28063C2.54776 1.51054 1.99618 1.84264 1.5234 2.30247C1.05062 2.73675 0.709171 3.29876 0.47278 3.88632C0.23639 4.44833 0.0787967 5.11252 0.0525312 6.05773C0 7.00293 0 7.30948 0 9.73635C0 12.1632 0 12.4698 0.0525312 13.415C0.105062 14.3602 0.262656 15.0244 0.47278 15.5864C0.709171 16.1739 1.07689 16.7104 1.5234 17.1702C1.96992 17.6301 2.54776 17.9622 3.15187 18.1921C3.72971 18.422 4.41262 18.5753 5.38444 18.6008C6.35627 18.6519 6.67146 18.6519 9.16669 18.6519C11.6619 18.6519 11.9508 18.6519 12.9489 18.6008C13.9208 18.5497 14.6037 18.3964 15.1815 18.1921C16.416 17.7322 17.3878 16.787 17.8606 15.5864C18.097 15.0244 18.2546 14.3602 18.2808 13.415C18.3334 12.4698 18.3334 12.1632 18.3334 9.73635C18.3071 7.30948 18.3071 7.00293 18.2546 6.05773ZM16.5998 13.3383C16.5736 14.2069 16.416 14.6667 16.2847 14.9988C15.9695 15.7652 15.3391 16.3783 14.5511 16.6849C14.2359 16.8126 13.7369 16.9403 12.8439 16.9914C11.872 17.0425 11.5831 17.0425 9.14042 17.0425C6.69772 17.0425 6.4088 17.0425 5.43697 16.9914C4.54394 16.9659 4.07116 16.8126 3.72971 16.6849C3.33573 16.5316 2.96801 16.3272 2.67909 16.0207C2.3639 15.7397 2.15378 15.382 1.99618 14.9988C1.86486 14.6923 1.73353 14.2069 1.681 13.3383C1.62847 12.3931 1.62847 12.1121 1.62847 9.73635C1.62847 7.36057 1.62847 7.07957 1.681 6.13436C1.73353 5.2658 1.86486 4.80597 1.99618 4.47388C2.15378 4.09069 2.3639 3.73304 2.67909 3.45204C2.96801 3.14548 3.33573 2.94112 3.72971 2.78784C4.0449 2.66011 4.54394 2.53238 5.43697 2.48129C6.4088 2.4302 6.69772 2.4302 9.14042 2.4302C11.5831 2.4302 11.872 2.4302 12.8439 2.48129C13.7369 2.53238 14.2097 2.66011 14.5511 2.78784C14.9451 2.94112 15.3128 3.14548 15.6018 3.45204C15.9169 3.73304 16.1271 4.09069 16.2847 4.47388C16.416 4.78043 16.5473 5.2658 16.5998 6.13436C16.6524 7.07957 16.6524 7.36057 16.6524 9.73635C16.6786 12.1121 16.6524 12.3931 16.5998 13.3383Z" fill="white"/>
<path d="M9.16638 5.16357C6.56609 5.16357 4.46484 7.20726 4.46484 9.73631C4.46484 12.2654 6.56609 14.309 9.16638 14.309C11.7667 14.309 13.8679 12.2654 13.8679 9.73631C13.8679 7.20726 11.7667 5.16357 9.16638 5.16357ZM9.16638 12.6996C7.48539 12.6996 6.11957 11.3713 6.11957 9.73631C6.11957 8.10137 7.48539 6.77297 9.16638 6.77297C10.8474 6.77297 12.2132 8.10137 12.2132 9.73631C12.2132 11.3713 10.8474 12.6996 9.16638 12.6996Z" fill="white"/>
<path d="M14.0519 3.91162C13.4478 3.91162 12.9487 4.39699 12.9487 4.98455C12.9487 5.57211 13.4478 6.05749 14.0519 6.05749C14.656 6.05749 15.155 5.57211 15.155 4.98455C15.155 4.37145 14.656 3.91162 14.0519 3.91162Z" fill="white"/>
</svg>
