<svg width="16" height="17" viewBox="0 0 16 17" fill="none" xmlns="http://www.w3.org/2000/svg">
<g clip-path="url(#clip0_1866_297)">
<path d="M7.99981 0.406747C9.4426 0.404496 10.8561 0.839416 12.0745 1.6605C15.2411 3.79329 15.4745 8.19841 12.9511 11.4192C11.5112 13.2567 9.92637 14.9603 8.21381 16.5114C8.15381 16.5648 8.07806 16.594 7.99981 16.594C7.92156 16.594 7.8458 16.5648 7.78581 16.5114C6.07319 14.9606 4.48833 13.2572 3.04847 11.4199C0.525807 8.19841 0.758474 3.79329 3.92514 1.6605C5.14353 0.839416 6.55701 0.404496 7.99981 0.406747V0.406747Z" stroke="white" stroke-linecap="round" stroke-linejoin="round"/>
<path d="M8 11.0303C10.2091 11.0303 12 9.12748 12 6.78027C12 4.43306 10.2091 2.53027 8 2.53027C5.79086 2.53027 4 4.43306 4 6.78027C4 9.12748 5.79086 11.0303 8 11.0303Z" stroke="white" stroke-linecap="round" stroke-linejoin="round"/>
</g>
<defs>
<clipPath id="clip0_1866_297">
<rect width="16" height="17" fill="white"/>
</clipPath>
</defs>
</svg>
