<svg width="142" height="20" viewBox="0 0 142 20" fill="none" xmlns="http://www.w3.org/2000/svg">
<path d="M15.144 15.1H6.694L5.082 19H0.766L8.878 0.799999H13.038L21.176 19H16.756L15.144 15.1ZM13.818 11.902L10.932 4.934L8.046 11.902H13.818ZM36.6163 5.012V19H32.7683V17.336C32.231 17.9427 31.5897 18.4107 30.8443 18.74C30.099 19.052 29.293 19.208 28.4263 19.208C26.589 19.208 25.133 18.6793 24.0583 17.622C22.9837 16.5647 22.4463 14.996 22.4463 12.916V5.012H26.5023V12.318C26.5023 14.5713 27.447 15.698 29.3363 15.698C30.307 15.698 31.087 15.386 31.6763 14.762C32.2657 14.1207 32.5603 13.176 32.5603 11.928V5.012H36.6163ZM49.396 18.324C48.9973 18.6187 48.5033 18.844 47.914 19C47.342 19.1387 46.7353 19.208 46.094 19.208C44.43 19.208 43.1386 18.7833 42.22 17.934C41.3186 17.0847 40.868 15.8367 40.868 14.19V8.444H38.71V5.324H40.868V1.918H44.924V5.324H48.408V8.444H44.924V14.138C44.924 14.7273 45.0713 15.1867 45.366 15.516C45.678 15.828 46.1113 15.984 46.666 15.984C47.3073 15.984 47.8533 15.8107 48.304 15.464L49.396 18.324ZM57.8971 19.208C56.4238 19.208 55.0978 18.9047 53.9191 18.298C52.7578 17.674 51.8478 16.816 51.1891 15.724C50.5305 14.632 50.2011 13.3927 50.2011 12.006C50.2011 10.6193 50.5305 9.38 51.1891 8.288C51.8478 7.196 52.7578 6.34667 53.9191 5.74C55.0978 5.116 56.4238 4.804 57.8971 4.804C59.3705 4.804 60.6878 5.116 61.8491 5.74C63.0105 6.34667 63.9205 7.196 64.5791 8.288C65.2378 9.38 65.5671 10.6193 65.5671 12.006C65.5671 13.3927 65.2378 14.632 64.5791 15.724C63.9205 16.816 63.0105 17.674 61.8491 18.298C60.6878 18.9047 59.3705 19.208 57.8971 19.208ZM57.8971 15.88C58.9371 15.88 59.7865 15.5333 60.4451 14.84C61.1211 14.1293 61.4591 13.1847 61.4591 12.006C61.4591 10.8273 61.1211 9.89133 60.4451 9.198C59.7865 8.48733 58.9371 8.132 57.8971 8.132C56.8571 8.132 55.9991 8.48733 55.3231 9.198C54.6471 9.89133 54.3091 10.8273 54.3091 12.006C54.3091 13.1847 54.6471 14.1293 55.3231 14.84C55.9991 15.5333 56.8571 15.88 57.8971 15.88ZM76.4423 0.799999C78.0543 0.799999 79.4496 1.06867 80.6283 1.606C81.8243 2.14333 82.7429 2.906 83.3843 3.894C84.0256 4.882 84.3463 6.052 84.3463 7.404C84.3463 8.73867 84.0256 9.90867 83.3843 10.914C82.7429 11.902 81.8243 12.6647 80.6283 13.202C79.4496 13.722 78.0543 13.982 76.4423 13.982H72.7763V19H68.5643V0.799999H76.4423ZM76.2083 10.55C77.4736 10.55 78.4356 10.2813 79.0943 9.744C79.7529 9.18933 80.0823 8.40933 80.0823 7.404C80.0823 6.38133 79.7529 5.60133 79.0943 5.064C78.4356 4.50933 77.4736 4.232 76.2083 4.232H72.7763V10.55H76.2083ZM92.5824 4.804C94.749 4.804 96.413 5.324 97.5744 6.364C98.7357 7.38667 99.3164 8.938 99.3164 11.018V19H95.5204V17.258C94.7577 18.558 93.3364 19.208 91.2564 19.208C90.1817 19.208 89.2457 19.026 88.4484 18.662C87.6684 18.298 87.0704 17.7953 86.6544 17.154C86.2384 16.5127 86.0304 15.7847 86.0304 14.97C86.0304 13.67 86.5157 12.6473 87.4864 11.902C88.4744 11.1567 89.991 10.784 92.0364 10.784H95.2604C95.2604 9.9 94.9917 9.224 94.4544 8.756C93.917 8.27067 93.111 8.028 92.0364 8.028C91.291 8.028 90.5544 8.14933 89.8264 8.392C89.1157 8.61733 88.509 8.92933 88.0064 9.328L86.5504 6.494C87.313 5.95667 88.223 5.54067 89.2804 5.246C90.355 4.95133 91.4557 4.804 92.5824 4.804ZM92.2704 16.478C92.9637 16.478 93.579 16.322 94.1164 16.01C94.6537 15.6807 95.035 15.204 95.2604 14.58V13.15H92.4784C90.8144 13.15 89.9824 13.696 89.9824 14.788C89.9824 15.308 90.1817 15.724 90.5804 16.036C90.9964 16.3307 91.5597 16.478 92.2704 16.478ZM109.9 19.208C108.409 19.208 107.066 18.9047 105.87 18.298C104.691 17.674 103.764 16.816 103.088 15.724C102.429 14.632 102.1 13.3927 102.1 12.006C102.1 10.6193 102.429 9.38 103.088 8.288C103.764 7.196 104.691 6.34667 105.87 5.74C107.066 5.116 108.409 4.804 109.9 4.804C111.373 4.804 112.656 5.116 113.748 5.74C114.857 6.34667 115.663 7.222 116.166 8.366L113.02 10.056C112.292 8.77333 111.243 8.132 109.874 8.132C108.816 8.132 107.941 8.47867 107.248 9.172C106.554 9.86533 106.208 10.81 106.208 12.006C106.208 13.202 106.554 14.1467 107.248 14.84C107.941 15.5333 108.816 15.88 109.874 15.88C111.26 15.88 112.309 15.2387 113.02 13.956L116.166 15.672C115.663 16.7813 114.857 17.648 113.748 18.272C112.656 18.896 111.373 19.208 109.9 19.208ZM127.726 18.324C127.327 18.6187 126.833 18.844 126.244 19C125.672 19.1387 125.065 19.208 124.424 19.208C122.76 19.208 121.469 18.7833 120.55 17.934C119.649 17.0847 119.198 15.8367 119.198 14.19V8.444H117.04V5.324H119.198V1.918H123.254V5.324H126.738V8.444H123.254V14.138C123.254 14.7273 123.401 15.1867 123.696 15.516C124.008 15.828 124.441 15.984 124.996 15.984C125.637 15.984 126.183 15.8107 126.634 15.464L127.726 18.324ZM134.709 19.208C133.548 19.208 132.412 19.0693 131.303 18.792C130.194 18.4973 129.31 18.1333 128.651 17.7L130.003 14.788C130.627 15.1867 131.381 15.516 132.265 15.776C133.149 16.0187 134.016 16.14 134.865 16.14C136.581 16.14 137.439 15.7153 137.439 14.866C137.439 14.4673 137.205 14.1813 136.737 14.008C136.269 13.8347 135.55 13.6873 134.579 13.566C133.435 13.3927 132.49 13.1933 131.745 12.968C131 12.7427 130.35 12.344 129.795 11.772C129.258 11.2 128.989 10.3853 128.989 9.328C128.989 8.444 129.24 7.664 129.743 6.988C130.263 6.29467 131.008 5.75733 131.979 5.376C132.967 4.99467 134.128 4.804 135.463 4.804C136.451 4.804 137.43 4.91667 138.401 5.142C139.389 5.35 140.204 5.64467 140.845 6.026L139.493 8.912C138.262 8.21867 136.919 7.872 135.463 7.872C134.596 7.872 133.946 7.99333 133.513 8.236C133.08 8.47867 132.863 8.79067 132.863 9.172C132.863 9.60533 133.097 9.90867 133.565 10.082C134.033 10.2553 134.778 10.42 135.801 10.576C136.945 10.7667 137.881 10.9747 138.609 11.2C139.337 11.408 139.97 11.798 140.507 12.37C141.044 12.942 141.313 13.7393 141.313 14.762C141.313 15.6287 141.053 16.4 140.533 17.076C140.013 17.752 139.25 18.2807 138.245 18.662C137.257 19.026 136.078 19.208 134.709 19.208Z" fill="#CE3B3A"/>
</svg>
