<svg width="18" height="14" viewBox="0 0 18 14" fill="none" xmlns="http://www.w3.org/2000/svg">
<path d="M17 2.95947V11.4471C17 11.7935 16.8595 12.1256 16.6095 12.3705C16.3594 12.6154 16.0203 12.7529 15.6667 12.7529H2.33333C1.97971 12.7529 1.64057 12.6154 1.39052 12.3705C1.14048 12.1256 1 11.7935 1 11.4471V2.95947" stroke="white" stroke-linecap="round" stroke-linejoin="round"/>
<path d="M17 2.95861V2.30574C17 1.95944 16.8595 1.62732 16.6095 1.38244C16.3594 1.13757 16.0203 1 15.6667 1H2.33333C1.97971 1 1.64057 1.13757 1.39052 1.38244C1.14048 1.62732 1 1.95944 1 2.30574V2.95861L7.93333 7.20619C8.2512 7.40075 8.61849 7.50391 8.99333 7.50391C9.36818 7.50391 9.73547 7.40075 10.0533 7.20619L17 2.95861Z" stroke="white" stroke-linecap="round" stroke-linejoin="round"/>
</svg>
