<svg width="19" height="16" viewBox="0 0 19 16" fill="none" xmlns="http://www.w3.org/2000/svg">
<path d="M0.268359 13.4796C1.97822 14.5366 3.98544 15.0891 6.04223 15.0891C9.06545 15.0891 11.8161 13.9601 13.8233 11.9182C15.7314 9.97237 16.797 7.32992 16.7474 4.68747C17.4661 4.08691 18.3334 2.93384 18.3334 1.8048C18.3334 1.3724 17.8625 1.10815 17.4661 1.32435C16.7722 1.70871 16.1527 1.8048 15.5084 1.63664C14.195 0.411505 12.2621 0.14726 10.6018 0.98804C9.16457 1.73273 8.3716 3.102 8.44594 4.59138C6.04222 4.32713 3.7872 3.15004 2.22602 1.32435C1.97822 1.03608 1.48261 1.06011 1.28436 1.39642C0.540945 2.64558 0.540945 4.08691 1.18524 5.264C0.863092 5.31205 0.689628 5.57629 0.689628 5.84054C0.689628 7.01763 1.2348 8.09863 2.10212 8.8193C1.92866 8.96343 1.87909 9.20366 1.95344 9.39583C2.34992 10.5249 3.21724 11.3897 4.30759 11.8461C3.11812 12.3986 1.80475 12.5908 0.640067 12.4467C0.0453339 12.3746 -0.252032 13.1673 0.268359 13.4796ZM6.19091 12.0623C6.61218 11.75 6.38915 11.0774 5.84398 11.0534C4.87754 11.0293 4.01022 10.5729 3.46505 9.85226C3.73763 9.82823 3.98544 9.80421 4.25803 9.73215C4.85276 9.58801 4.82798 8.74723 4.23325 8.65114C3.1429 8.43494 2.30036 7.66623 1.97822 6.68132C2.27558 6.75338 2.57295 6.80143 2.87032 6.80143C3.46505 6.80143 3.68807 6.08076 3.19246 5.76847C2.1269 5.07183 1.65607 3.87071 1.97822 2.71764C3.86154 4.56736 6.41393 5.67238 9.11501 5.79249C9.5115 5.81652 9.78409 5.45618 9.70975 5.09585C9.33804 3.55842 10.2301 2.47742 11.1966 1.97295C12.1382 1.46848 13.6499 1.32435 14.8145 2.50144C15.1615 2.86178 16.3262 2.86178 16.9209 2.74167C16.6483 3.22211 16.2518 3.67853 15.8553 3.94278C15.6819 4.06289 15.6075 4.23105 15.6075 4.42322C15.7314 6.8735 14.7898 9.32377 13.0056 11.1254C11.2214 12.9511 8.7433 13.936 6.04223 13.936C4.97666 13.936 3.9111 13.7679 2.91988 13.4316C4.10934 13.2634 5.24925 12.783 6.19091 12.0623Z" fill="white"/>
</svg>
