<svg width="81" height="80" viewBox="0 0 81 80" fill="none" xmlns="http://www.w3.org/2000/svg">
<g clip-path="url(#clip0_1892_7261)">
<path d="M60.0201 0C60.3326 0 60.6451 0 60.9575 0C61.1807 0.116058 61.395 0.2589 61.6271 0.357103C67.4925 2.90146 73.3579 5.43689 79.2323 7.9634C80.0268 8.30264 80.5 8.75795 80.4911 9.70427C80.4732 16.0607 80.5268 22.4082 80.4643 28.7646C80.4197 33.2017 78.5449 36.7995 75.0185 39.5045C73.6168 40.5758 72.1438 41.5668 70.7065 42.6024C70.5458 42.7184 70.4029 42.8613 70.2601 42.9863C72.0724 45.0218 72.492 46.1288 72.492 48.8249C72.492 51.9228 72.492 55.0206 72.492 58.1185C72.492 61.3503 72.5009 64.5731 72.492 67.8049C72.492 69.5458 71.3939 70.6171 69.6619 70.6439C69.287 70.6439 68.9031 70.6439 68.4746 70.6439C68.4746 72.5365 68.5013 74.3042 68.4746 76.0719C68.4389 78.2323 66.7605 79.9464 64.6 79.9732C61.8682 80.0089 59.1363 80.0089 56.3955 79.9732C54.2351 79.9464 52.5656 78.2323 52.5121 76.0808C52.4942 75.3487 52.5121 74.6256 52.5121 73.8935C52.5121 72.8312 52.5121 71.7777 52.5121 70.6885H20.587C20.5513 70.7778 20.5067 70.8224 20.5067 70.8671C20.5067 72.5098 20.4978 74.1435 20.4888 75.7862C20.471 78.268 18.8015 79.9732 16.3375 79.9821C13.7574 79.9911 11.1863 80 8.60624 79.9821C6.24936 79.9643 4.57097 78.3216 4.51741 75.9737C4.4817 74.4917 4.51741 73.0097 4.50848 71.5188C4.50848 71.2421 4.4817 70.9653 4.46384 70.5814C2.60691 70.8849 1.1785 70.4296 0.5 68.5816C0.5 61.3949 0.5 54.2082 0.5 47.0215C0.553565 46.8519 0.624986 46.6912 0.669624 46.5127C1.34812 43.9594 2.94616 42.281 5.49051 41.5846C6.05295 41.4329 6.28507 41.174 6.46362 40.6562C8.92763 33.6212 11.4095 26.5863 13.8824 19.5603C15.043 16.266 17.2928 14.668 20.7656 14.668C27.0149 14.668 33.2553 14.668 39.5046 14.668H40.4866C40.4866 12.9718 40.5134 11.3648 40.4777 9.75784C40.4598 8.88294 40.7991 8.35621 41.6026 8.01696C46.1645 6.07075 50.7265 4.10668 55.2796 2.12476C56.8687 1.44627 58.44 0.714206 60.0201 0ZM64.6268 46.9233C66.0909 47.6554 66.9837 48.7088 67.1086 50.2355C67.1979 51.4228 67.2158 52.637 67.0908 53.8154C66.8676 55.8688 65.2338 57.2972 63.1627 57.315C60.4844 57.3418 57.7972 57.3507 55.1189 57.315C52.6817 57.2793 50.8962 55.1903 51.1908 52.7709C51.5389 49.9587 53.0388 48.0393 55.6992 47.0305C55.842 46.9769 55.976 46.9055 56.1991 46.8073C55.0564 45.9949 54.003 45.1914 52.887 44.4772C52.4763 44.2183 51.9496 44.0219 51.4675 44.0219C36.862 43.9951 22.2654 44.004 7.65992 44.004C4.7406 44.004 3.16935 45.5842 3.16935 48.4767C3.16935 54.6725 3.16935 60.8682 3.16935 67.0639V67.9746H7.18675C7.18675 67.0282 7.1689 66.1712 7.18675 65.3141C7.23139 63.7607 8.31163 62.6894 9.86503 62.6537C10.6417 62.6359 11.4274 62.6537 12.2041 62.6537C14.0788 62.6626 15.1502 63.7429 15.168 65.6087C15.168 66.3765 15.168 67.1532 15.168 67.921H57.824C57.824 67.0372 57.815 66.2069 57.824 65.3766C57.8507 63.7965 58.9488 62.6984 60.5379 62.6627C61.3146 62.6448 62.1003 62.6627 62.877 62.6627C64.716 62.6716 65.7874 63.734 65.7963 65.5641C65.7963 66.3587 65.7963 67.1532 65.7963 67.9121H69.8048C69.8048 61.1539 69.8226 54.4671 69.7869 47.7804C69.7869 46.6109 69.2334 45.6199 68.2871 44.9057C68.1175 44.7807 67.7336 44.745 67.5639 44.8521C66.5908 45.4949 65.6534 46.1913 64.6089 46.9323L64.6268 46.9233ZM35.1479 17.3374C34.8355 17.3374 34.5766 17.3374 34.3266 17.3374C29.7467 17.3374 25.1669 17.3374 20.5781 17.3374C18.5248 17.3374 17.141 18.3194 16.4536 20.2745C14.061 27.0595 11.6773 33.8534 9.28473 40.6472C9.21331 40.8526 9.1776 41.0668 9.11511 41.2811H48.2C43.2899 38.2011 40.3884 33.9873 40.4688 27.9969C40.1117 27.9969 39.826 27.9969 39.5403 27.9969C36.7817 27.9969 34.023 28.0058 31.2644 27.9969C29.6217 27.9969 28.5237 26.8988 28.479 25.265C28.4612 24.6133 28.479 23.9616 28.479 23.3099C28.479 20.953 29.4343 20.0067 31.8001 20.0067C32.9071 20.0067 34.0141 20.0067 35.139 20.0067V17.3463L35.1479 17.3374ZM77.8217 20.087C77.8217 17.0427 77.8128 13.9984 77.8307 10.9541C77.8307 10.481 77.7235 10.2131 77.2504 10.0078C71.8313 7.68664 66.4212 5.33869 61.0022 3.01752C60.7165 2.89253 60.279 2.89253 59.9934 3.01752C54.5743 5.33869 49.1642 7.68664 43.7452 10.0078C43.2988 10.2042 43.1381 10.4363 43.1381 10.9274C43.156 16.8374 43.1202 22.7385 43.1649 28.6486C43.1917 32.2821 44.6826 35.2639 47.6287 37.4155C51.7264 40.4062 55.8867 43.3077 60.0023 46.2627C60.3505 46.5127 60.5737 46.5484 60.9486 46.2805C65.0285 43.3523 69.1352 40.4687 73.1972 37.5226C76.2773 35.2996 77.786 32.2285 77.8128 28.4343C77.8307 25.6489 77.8128 22.8635 77.8128 20.0781L77.8217 20.087ZM65.8052 70.6975H55.1725C55.1725 72.5187 55.1546 74.2864 55.1814 76.054C55.1903 76.795 55.7349 77.3039 56.5116 77.3128C59.1631 77.3307 61.8146 77.3307 64.475 77.3128C65.2517 77.3128 65.7874 76.795 65.7963 76.054C65.8231 74.2864 65.8052 72.5187 65.8052 70.6975ZM7.17783 70.6796C7.17783 72.4294 7.1689 74.1346 7.17783 75.8397C7.18675 76.8218 7.6867 77.3128 8.68659 77.3128C11.2131 77.3217 13.7307 77.3217 16.2572 77.3128C17.3285 77.3128 17.8195 76.8039 17.8195 75.7148C17.8284 74.2328 17.8195 72.7508 17.8195 71.2688C17.8195 71.0724 17.7749 70.876 17.757 70.6796H7.17783ZM59.1006 54.6635C60.3951 54.6635 61.6985 54.6814 62.993 54.6635C63.9394 54.6457 64.4393 54.1636 64.4839 53.2262C64.5196 52.3959 64.5196 51.5657 64.4839 50.7354C64.4393 49.8248 63.9572 49.3606 63.0466 49.3516C61.2789 49.3338 59.5113 49.3248 57.7525 49.3516C55.726 49.3873 54.1726 50.7979 53.869 52.8155C53.6905 54.0029 54.244 54.6546 55.4403 54.6635C56.6634 54.6725 57.8775 54.6635 59.1006 54.6635ZM31.1841 25.265H40.4241V22.7118H31.1841V25.265ZM37.844 19.9353H40.433V17.3998H37.844V19.9353ZM12.4451 67.9478V65.3588H9.89181V67.9478H12.4451ZM60.5379 65.332V67.921H63.0823V65.332H60.5379Z" fill="white"/>
<path d="M36.5317 54.6636C39.5225 54.6636 42.5132 54.6636 45.5129 54.6636C47.4323 54.6636 48.4679 55.6902 48.4768 57.5829C48.4768 59.2256 48.4857 60.8593 48.4768 62.502C48.459 64.2072 47.3966 65.2963 45.7093 65.3052C39.5671 65.3142 33.4249 65.3142 27.2828 65.3052C25.6222 65.3052 24.542 64.2429 24.5152 62.5823C24.4884 60.8415 24.4884 59.0917 24.5152 57.3508C24.542 55.7349 25.6312 54.6814 27.2381 54.6725C30.336 54.6546 33.4339 54.6725 36.5317 54.6725V54.6636ZM27.2024 62.5913H45.745V57.3776H27.2024V62.5913Z" fill="white"/>
<path d="M13.82 57.3239C12.5166 57.3239 11.2131 57.3329 9.91863 57.3239C7.5796 57.2972 5.87444 55.6098 5.8298 53.2887C5.81194 52.4048 5.81194 51.521 5.8298 50.6372C5.89229 48.4142 7.53496 46.7358 9.749 46.6912C11.7488 46.6555 13.7575 46.6287 15.7662 46.718C19.1855 46.8787 22.0333 50.1372 21.8191 53.5297C21.6852 55.6634 20.0425 57.2704 17.891 57.315C16.534 57.3507 15.1859 57.315 13.8289 57.315L13.82 57.3239ZM13.8289 54.6635C15.1055 54.6635 16.3733 54.6814 17.6499 54.6635C18.6677 54.6457 19.1765 54.0832 19.1319 53.0833C19.0515 51.1014 17.4178 49.423 15.4269 49.3605C13.5879 49.307 11.7399 49.3248 9.89184 49.3427C9.00801 49.3427 8.517 49.8605 8.48129 50.7622C8.4545 51.5121 8.46343 52.2709 8.48129 53.0208C8.49914 54.1814 8.98123 54.6546 10.1686 54.6635C11.3917 54.6635 12.6058 54.6635 13.8289 54.6635Z" fill="white"/>
<path d="M25.8098 21.2923C25.8277 22.0422 25.301 22.6135 24.4975 22.6492C23.8726 22.676 23.2476 22.6492 22.6227 22.6582C21.4889 22.6582 21.1854 22.8814 20.8015 23.9705C19.2391 28.4075 17.6768 32.8356 16.1145 37.2726C16.0252 37.5137 15.9449 37.7726 15.8199 37.9868C15.4806 38.5671 14.8111 38.7903 14.1951 38.5582C13.5969 38.335 13.2398 37.6922 13.4094 37.0405C13.5344 36.5406 13.7308 36.0495 13.9005 35.5674C15.3646 31.3983 16.8287 27.238 18.2928 23.0778C19.0517 20.9262 20.3551 20.0067 22.6227 20.0067C23.2476 20.0067 23.8726 19.9888 24.4975 20.0156C25.2653 20.0513 25.7831 20.587 25.8009 21.3012L25.8098 21.2923Z" fill="white"/>
<path d="M75.1615 21.0334C75.1615 23.4795 75.1615 25.9257 75.1615 28.3718C75.1615 31.3358 73.9741 33.7105 71.5547 35.4425C68.2337 37.8172 64.9037 40.183 61.5737 42.5488C60.6899 43.1738 60.2703 43.1648 59.3865 42.5399C56.0565 40.1741 52.7265 37.8083 49.4054 35.4336C47.0396 33.7373 45.8344 31.4161 45.8255 28.5147C45.7987 23.4438 45.8255 18.364 45.8076 13.2932C45.8076 12.3915 46.1736 11.8648 47.0039 11.5166C51.1642 9.74892 55.3155 7.95448 59.449 6.13326C60.1721 5.81186 60.8059 5.81186 61.5291 6.13326C65.6001 7.91877 69.671 9.68643 73.7688 11.4184C74.7776 11.838 75.1972 12.4451 75.1704 13.5521C75.1079 16.0518 75.1526 18.5515 75.1526 21.0512L75.1615 21.0334ZM48.477 21.5601C48.477 23.8009 48.4859 26.0328 48.477 28.2736C48.4591 30.443 49.3251 32.1304 51.1106 33.3802C54.0656 35.4603 57.0028 37.5583 59.94 39.6742C60.3328 39.9509 60.6006 40.0134 61.0202 39.7009C63.9931 37.5583 66.9838 35.4336 69.9746 33.3088C71.6708 32.1036 72.5011 30.4609 72.5011 28.3897C72.5011 23.7295 72.5011 19.0782 72.51 14.418C72.51 13.9181 72.3404 13.6949 71.894 13.5074C68.2605 11.963 64.6448 10.3739 61.0113 8.83831C60.7256 8.71333 60.2881 8.7044 60.0025 8.82938C56.3422 10.3828 52.7086 11.9808 49.0483 13.5342C48.5841 13.7306 48.4591 13.9806 48.4591 14.4627C48.4859 16.8285 48.468 19.1943 48.468 21.569L48.477 21.5601Z" fill="white"/>
<path d="M57.5831 28.8182C59.6453 26.2381 61.663 23.7205 63.6806 21.2119C64.9126 19.6674 66.1357 18.114 67.3945 16.5874C68.064 15.775 69.1353 15.8286 69.6264 16.6588C70.0192 17.3284 69.7603 17.8908 69.3228 18.4354C67.0106 21.3101 64.7073 24.2026 62.395 27.0862C61.288 28.47 60.1899 29.8538 59.0829 31.2286C58.324 32.175 57.717 32.2464 56.7528 31.5322C55.1458 30.3359 53.5478 29.1307 51.9498 27.9254C51.1106 27.2916 50.932 26.5417 51.4498 25.8632C51.9498 25.2204 52.7086 25.1757 53.521 25.7739C54.8601 26.7648 56.1814 27.7647 57.592 28.8271L57.5831 28.8182Z" fill="white"/>
</g>
<defs>
<clipPath id="clip0_1892_7261">
<rect width="80" height="80" fill="white" transform="translate(0.5)"/>
</clipPath>
</defs>
</svg>
